<?xml version="1.0" standalone="no"?>
<!DOCTYPE svg PUBLIC "-//W3C//DTD SVG 20010904//EN"
 "http://www.w3.org/TR/2001/REC-SVG-20010904/DTD/svg10.dtd">
<svg version="1.0" xmlns="http://www.w3.org/2000/svg"
 width="64.000000pt" height="64.000000pt" viewBox="0 0 64.000000 64.000000"
 preserveAspectRatio="xMidYMid meet">

<g transform="translate(0.000000,64.000000) scale(0.100000,-0.100000)"
fill="#000000" stroke="none">
<path d="M195 527 c-61 -23 -116 -46 -123 -50 -17 -12 -17 -301 1 -315 6 -5
64 -28 128 -51 l117 -41 123 44 124 44 0 162 0 163 -50 18 c-71 25 -80 24
-210 -22 l-116 -41 3 -37 c4 -43 21 -48 28 -7 5 27 13 32 111 67 95 34 111 37
143 27 20 -6 36 -14 36 -17 0 -4 -45 -22 -100 -41 l-100 -35 0 -142 c0 -79 -4
-143 -9 -143 -5 0 -51 15 -102 34 l-94 34 0 142 0 142 113 40 c70 25 112 45
112 54 0 20 -12 17 -135 -29z m353 -213 l-3 -136 -95 -34 c-52 -19 -101 -34
-108 -34 -10 0 -12 30 -10 132 l3 133 100 37 c55 20 104 37 108 38 4 0 6 -61
5 -136z"/>
</g>
</svg>
